<mxfile host="app.diagrams.net" modified="2022-12-01T15:07:36.322Z" agent="5.0 (Windows NT 10.0; Win64; x64) AppleWebKit/537.36 (KHTML, like Gecko) Chrome/107.0.0.0 Safari/537.36 Edg/107.0.1418.62" etag="4u9ZldyvdG_5q91-nKDO" version="20.6.0" type="github">
  <diagram id="C5RBs43oDa-KdzZeNtuy" name="Page-1">
    <mxGraphModel dx="1497" dy="928" grid="1" gridSize="10" guides="1" tooltips="1" connect="1" arrows="1" fold="1" page="1" pageScale="1" pageWidth="827" pageHeight="1169" math="0" shadow="0">
      <root>
        <mxCell id="WIyWlLk6GJQsqaUBKTNV-0" />
        <mxCell id="WIyWlLk6GJQsqaUBKTNV-1" parent="WIyWlLk6GJQsqaUBKTNV-0" />
        <mxCell id="VzK46RUyFmm7DbE24r6e-5" style="edgeStyle=orthogonalEdgeStyle;rounded=0;orthogonalLoop=1;jettySize=auto;html=1;" parent="WIyWlLk6GJQsqaUBKTNV-1" source="VzK46RUyFmm7DbE24r6e-2" target="VzK46RUyFmm7DbE24r6e-3" edge="1">
          <mxGeometry relative="1" as="geometry" />
        </mxCell>
        <mxCell id="VzK46RUyFmm7DbE24r6e-6" style="edgeStyle=orthogonalEdgeStyle;rounded=0;orthogonalLoop=1;jettySize=auto;html=1;" parent="WIyWlLk6GJQsqaUBKTNV-1" source="VzK46RUyFmm7DbE24r6e-2" target="VzK46RUyFmm7DbE24r6e-4" edge="1">
          <mxGeometry relative="1" as="geometry" />
        </mxCell>
        <mxCell id="VzK46RUyFmm7DbE24r6e-2" value="popup manager" style="rounded=1;whiteSpace=wrap;html=1;" parent="WIyWlLk6GJQsqaUBKTNV-1" vertex="1">
          <mxGeometry x="20" y="10" width="120" height="60" as="geometry" />
        </mxCell>
        <mxCell id="VzK46RUyFmm7DbE24r6e-9" style="edgeStyle=orthogonalEdgeStyle;rounded=0;orthogonalLoop=1;jettySize=auto;html=1;entryX=0.5;entryY=0;entryDx=0;entryDy=0;" parent="WIyWlLk6GJQsqaUBKTNV-1" source="VzK46RUyFmm7DbE24r6e-3" target="VzK46RUyFmm7DbE24r6e-8" edge="1">
          <mxGeometry relative="1" as="geometry" />
        </mxCell>
        <mxCell id="VzK46RUyFmm7DbE24r6e-16" value="sotrage" style="edgeLabel;html=1;align=center;verticalAlign=middle;resizable=0;points=[];" parent="VzK46RUyFmm7DbE24r6e-9" vertex="1" connectable="0">
          <mxGeometry x="-0.1528" y="1" relative="1" as="geometry">
            <mxPoint as="offset" />
          </mxGeometry>
        </mxCell>
        <mxCell id="VzK46RUyFmm7DbE24r6e-12" style="edgeStyle=orthogonalEdgeStyle;rounded=0;orthogonalLoop=1;jettySize=auto;html=1;entryX=0.5;entryY=0;entryDx=0;entryDy=0;" parent="WIyWlLk6GJQsqaUBKTNV-1" source="VzK46RUyFmm7DbE24r6e-3" target="VzK46RUyFmm7DbE24r6e-18" edge="1">
          <mxGeometry relative="1" as="geometry">
            <mxPoint x="250.0344827586207" y="410" as="targetPoint" />
            <Array as="points">
              <mxPoint x="250" y="270" />
            </Array>
          </mxGeometry>
        </mxCell>
        <mxCell id="VzK46RUyFmm7DbE24r6e-17" value="route config" style="edgeLabel;html=1;align=center;verticalAlign=middle;resizable=0;points=[];" parent="VzK46RUyFmm7DbE24r6e-12" vertex="1" connectable="0">
          <mxGeometry x="0.3988" y="3" relative="1" as="geometry">
            <mxPoint as="offset" />
          </mxGeometry>
        </mxCell>
        <mxCell id="VzK46RUyFmm7DbE24r6e-3" value="kit" style="rounded=1;whiteSpace=wrap;html=1;" parent="WIyWlLk6GJQsqaUBKTNV-1" vertex="1">
          <mxGeometry x="20" y="240" width="120" height="60" as="geometry" />
        </mxCell>
        <mxCell id="VzK46RUyFmm7DbE24r6e-15" style="edgeStyle=orthogonalEdgeStyle;rounded=0;orthogonalLoop=1;jettySize=auto;html=1;entryX=0.5;entryY=0;entryDx=0;entryDy=0;fillColor=#072A0A;strokeColor=#44F022;" parent="WIyWlLk6GJQsqaUBKTNV-1" source="VzK46RUyFmm7DbE24r6e-4" target="VzK46RUyFmm7DbE24r6e-3" edge="1">
          <mxGeometry relative="1" as="geometry" />
        </mxCell>
        <mxCell id="VzK46RUyFmm7DbE24r6e-4" value="other component" style="rounded=1;whiteSpace=wrap;html=1;" parent="WIyWlLk6GJQsqaUBKTNV-1" vertex="1">
          <mxGeometry x="350" y="110" width="120" height="60" as="geometry" />
        </mxCell>
        <mxCell id="VzK46RUyFmm7DbE24r6e-8" value="store" style="rounded=0;whiteSpace=wrap;html=1;" parent="WIyWlLk6GJQsqaUBKTNV-1" vertex="1">
          <mxGeometry x="20" y="420" width="120" height="60" as="geometry" />
        </mxCell>
        <mxCell id="VzK46RUyFmm7DbE24r6e-18" value="router" style="rounded=0;whiteSpace=wrap;html=1;" parent="WIyWlLk6GJQsqaUBKTNV-1" vertex="1">
          <mxGeometry x="190" y="420" width="120" height="60" as="geometry" />
        </mxCell>
        <mxCell id="uNgJmUNyPYGfQRlhBO2t-12" style="edgeStyle=orthogonalEdgeStyle;rounded=0;orthogonalLoop=1;jettySize=auto;html=1;entryX=0.5;entryY=1;entryDx=0;entryDy=0;" edge="1" parent="WIyWlLk6GJQsqaUBKTNV-1" source="uNgJmUNyPYGfQRlhBO2t-1" target="uNgJmUNyPYGfQRlhBO2t-8">
          <mxGeometry relative="1" as="geometry">
            <Array as="points">
              <mxPoint x="1100" y="510" />
              <mxPoint x="1640" y="510" />
            </Array>
          </mxGeometry>
        </mxCell>
        <mxCell id="uNgJmUNyPYGfQRlhBO2t-13" value="default value" style="edgeLabel;html=1;align=center;verticalAlign=middle;resizable=0;points=[];" vertex="1" connectable="0" parent="uNgJmUNyPYGfQRlhBO2t-12">
          <mxGeometry x="-0.1471" y="1" relative="1" as="geometry">
            <mxPoint as="offset" />
          </mxGeometry>
        </mxCell>
        <mxCell id="uNgJmUNyPYGfQRlhBO2t-1" value="store" style="rounded=0;whiteSpace=wrap;html=1;" vertex="1" parent="WIyWlLk6GJQsqaUBKTNV-1">
          <mxGeometry x="1040" y="310" width="120" height="60" as="geometry" />
        </mxCell>
        <mxCell id="uNgJmUNyPYGfQRlhBO2t-2" value="router" style="rounded=0;whiteSpace=wrap;html=1;" vertex="1" parent="WIyWlLk6GJQsqaUBKTNV-1">
          <mxGeometry x="1230" y="310" width="120" height="60" as="geometry" />
        </mxCell>
        <mxCell id="uNgJmUNyPYGfQRlhBO2t-3" value="modal" style="rounded=0;whiteSpace=wrap;html=1;" vertex="1" parent="WIyWlLk6GJQsqaUBKTNV-1">
          <mxGeometry x="1420" y="20" width="200" height="160" as="geometry" />
        </mxCell>
        <mxCell id="uNgJmUNyPYGfQRlhBO2t-7" style="edgeStyle=orthogonalEdgeStyle;rounded=0;orthogonalLoop=1;jettySize=auto;html=1;entryX=0.5;entryY=0;entryDx=0;entryDy=0;" edge="1" parent="WIyWlLk6GJQsqaUBKTNV-1" source="uNgJmUNyPYGfQRlhBO2t-4" target="uNgJmUNyPYGfQRlhBO2t-1">
          <mxGeometry relative="1" as="geometry" />
        </mxCell>
        <mxCell id="uNgJmUNyPYGfQRlhBO2t-4" value="store config" style="rounded=1;whiteSpace=wrap;html=1;absoluteArcSize=1;arcSize=14;strokeWidth=2;" vertex="1" parent="WIyWlLk6GJQsqaUBKTNV-1">
          <mxGeometry x="1370" y="40" width="80" height="30" as="geometry" />
        </mxCell>
        <mxCell id="uNgJmUNyPYGfQRlhBO2t-6" style="edgeStyle=orthogonalEdgeStyle;rounded=0;orthogonalLoop=1;jettySize=auto;html=1;" edge="1" parent="WIyWlLk6GJQsqaUBKTNV-1" source="uNgJmUNyPYGfQRlhBO2t-5" target="uNgJmUNyPYGfQRlhBO2t-2">
          <mxGeometry relative="1" as="geometry" />
        </mxCell>
        <mxCell id="uNgJmUNyPYGfQRlhBO2t-5" value="route config" style="rounded=1;whiteSpace=wrap;html=1;absoluteArcSize=1;arcSize=14;strokeWidth=2;" vertex="1" parent="WIyWlLk6GJQsqaUBKTNV-1">
          <mxGeometry x="1370" y="85" width="80" height="30" as="geometry" />
        </mxCell>
        <mxCell id="uNgJmUNyPYGfQRlhBO2t-8" value="close in" style="rounded=1;whiteSpace=wrap;html=1;absoluteArcSize=1;arcSize=14;strokeWidth=2;" vertex="1" parent="WIyWlLk6GJQsqaUBKTNV-1">
          <mxGeometry x="1600" y="140" width="80" height="30" as="geometry" />
        </mxCell>
        <mxCell id="uNgJmUNyPYGfQRlhBO2t-10" style="edgeStyle=orthogonalEdgeStyle;rounded=0;orthogonalLoop=1;jettySize=auto;html=1;entryX=0.5;entryY=1;entryDx=0;entryDy=0;" edge="1" parent="WIyWlLk6GJQsqaUBKTNV-1" source="uNgJmUNyPYGfQRlhBO2t-9" target="uNgJmUNyPYGfQRlhBO2t-8">
          <mxGeometry relative="1" as="geometry" />
        </mxCell>
        <mxCell id="uNgJmUNyPYGfQRlhBO2t-9" value="page" style="rounded=0;whiteSpace=wrap;html=1;" vertex="1" parent="WIyWlLk6GJQsqaUBKTNV-1">
          <mxGeometry x="1750" y="400" width="200" height="160" as="geometry" />
        </mxCell>
      </root>
    </mxGraphModel>
  </diagram>
</mxfile>
